# xmcd
#
# Track frame offsets: 
#        150
#        16364
#        30397
#        42693
#        58128
#        72052
#        87410
#        100081
#        113421
#        128042
#        141672
#        159341
#
# Disc length: 2306 seconds
#
# Revision: 0
# Processed by: cddbd v1.5.2PL0 Copyright (c) Steve Scherf et al.
# Submitted via: ExactAudioCopy v0.99pb4
#
DISCID=9e09000c
DTITLE=Ellerine Harding - Ellerine
DYEAR=1972
DGENRE=Soul
TTITLE0=If It Makes You Feel Good ? It's All Right
TTITLE1=Get Up Daddy
TTITLE2=A Fool In Love
TTITLE3=I Ain't Got Much (But Whatever I Got It's Yours Baby)
TTITLE4=To Whom It May Concern (All I Need)
TTITLE5=Human Feeling
TTITLE6=Don't Take The Time
TTITLE7=Sho' Nuff I Need You, Baby
TTITLE8=Write Me If I'm Wrong
TTITLE9=I Know Something You Don't Know
TTITLE10=We'll Cry Together
TTITLE11=Tonight Let The Other Woman Cry Some
EXTD=
EXTT0=
EXTT1=
EXTT2=
EXTT3=
EXTT4=
EXTT5=
EXTT6=
EXTT7=
EXTT8=
EXTT9=
EXTT10=
EXTT11=
PLAYORDER=
